<svg style="height: 512px; width: 512px;" xmlns="http://www.w3.org/2000/svg" viewBox="0 0 512 512"><path d="M0 0h512v512H0z" fill="transparent" fill-opacity="0"></path><g class="" style="touch-action: none;" transform="translate(0,0)"><g><path d="M222.03 20.53L222.03 78.78L165.938 99L172.282 116.563L222.032 98.625L222.032 194.781L134.877 228.626L141.627 246.032L222.033 214.814L222.033 356.784L160.378 356.784L158.94 349.19L154.253 324.127L95.812 324.127L95.812 181.657L155.969 159.971L149.624 142.376L95.811 161.782L95.811 78.345L77.126 78.345L77.126 168.532L25.126 187.282L31.47 204.846L77.125 188.376L77.125 324.126L26.437 324.126C32.002 378.526 53.764 432.206 93.219 467.721L375.56 467.721C385.103 416.176 415.39 372.575 449.248 331.281L449.185 331.281L494.594 299L483.781 283.75L416.907 331.28L367.25 331.28L367.25 219.314L429.438 196.876L423.125 179.313L367.25 199.47L367.25 132.438L348.562 132.438L348.562 206.218L298.625 224.218L304.938 241.781L348.563 226.031L348.563 347.626L343.656 353.47L340.844 356.78L240.72 356.78L240.72 207.564L327.875 173.72L321.095 156.313L240.719 187.531L240.719 91.907L296.779 71.687L290.437 54.095L240.717 72.032L240.717 20.532L222.03 20.532Z" class="selected" fill="#d0021b" fill-opacity="1"></path></g></g><g class="" style="touch-action: none;" transform="translate(114,243)"><g><circle cx="128" cy="128" r="128" fill="#ffff66" fill-opacity="1"></circle><circle stroke="#d0021b" stroke-opacity="1" fill="#ffff66" fill-opacity="1" stroke-width="18" cx="128" cy="128" r="101"></circle><path fill="#d0021b" fill-opacity="1" d="M128 64s-8.7 13.99-16 16c-10.6 2.93-32-8-32-8s10.42 20.43 22.4 32.6c16.6 5 32.8 5.3 49.6.5C162.3 92.94 170.3 72 170.3 72s-17.4 10.22-26.3 8c-7.3-1.83-16-16-16-16zm-25.8 59.2c-11.03 13.4-26.77 36-22.2 50.8 5.36 17.4 29.8 26 48 26s42.6-8.6 48-26c4.5-14.8-11.2-37.4-22.2-50.8-17.2 4.3-34.6 4.3-51.6 0z"></path></g></g></svg>